<svg version="1.1" xmlns="http://www.w3.org/2000/svg" xmlns:xlink="http://www.w3.org/1999/xlink" width="24" height="24" viewBox="0,0,256,256"><g fill="#dc7311" fill-rule="nonzero" stroke="none" stroke-width="1" stroke-linecap="butt" stroke-linejoin="miter" stroke-miterlimit="10" stroke-dasharray="" stroke-dashoffset="0" font-family="none" font-weight="none" font-size="none" text-anchor="none" style="mix-blend-mode: normal"><g transform="translate(0,256) scale(0.26667,0.26667)"><path d="M480,-280c11.33333,0 20.83333,-3.83333 28.5,-11.5c7.66667,-7.66667 11.5,-17.16667 11.5,-28.5c0,-11.33333 -3.83333,-20.83333 -11.5,-28.5c-7.66667,-7.66667 -17.16667,-11.5 -28.5,-11.5c-11.33333,0 -20.83333,3.83333 -28.5,11.5c-7.66667,7.66667 -11.5,17.16667 -11.5,28.5c0,11.33333 3.83333,20.83333 11.5,28.5c7.66667,7.66667 17.16667,11.5 28.5,11.5zM440,-440h80v-240h-80zM480,-80c-55.33333,0 -107.33333,-10.5 -156,-31.5c-48.66667,-21 -91,-49.5 -127,-85.5c-36,-36 -64.5,-78.33333 -85.5,-127c-21,-48.66667 -31.5,-100.66667 -31.5,-156c0,-55.33333 10.5,-107.33333 31.5,-156c21,-48.66667 49.5,-91 85.5,-127c36,-36 78.33333,-64.5 127,-85.5c48.66667,-21 100.66667,-31.5 156,-31.5c55.33333,0 107.33333,10.5 156,31.5c48.66667,21 91,49.5 127,85.5c36,36 64.5,78.33333 85.5,127c21,48.66667 31.5,100.66667 31.5,156c0,55.33333 -10.5,107.33333 -31.5,156c-21,48.66667 -49.5,91 -85.5,127c-36,36 -78.33333,64.5 -127,85.5c-48.66667,21 -100.66667,31.5 -156,31.5zM480,-160c89.33333,0 165,-31 227,-93c62,-62 93,-137.66667 93,-227c0,-89.33333 -31,-165 -93,-227c-62,-62 -137.66667,-93 -227,-93c-89.33333,0 -165,31 -227,93c-62,62 -93,137.66667 -93,227c0,89.33333 31,165 93,227c62,62 137.66667,93 227,93zM480,-480z"></path></g></g></svg>