<svg version="1.1" xmlns="http://www.w3.org/2000/svg" xmlns:xlink="http://www.w3.org/1999/xlink" width="24" height="24" viewBox="0,0,256,256"><g fill="#f6f6f6" fill-rule="nonzero" stroke="none" stroke-width="1" stroke-linecap="butt" stroke-linejoin="miter" stroke-miterlimit="10" stroke-dasharray="" stroke-dashoffset="0" font-family="none" font-weight="none" font-size="none" text-anchor="none" style="mix-blend-mode: normal"><g transform="translate(0,256) scale(0.26667,0.26667)"><path d="M480,-301c66,-53.33333 115.83333,-104.66667 149.5,-154c33.66667,-49.33333 50.5,-95.66667 50.5,-139c0,-37.33333 -6.83333,-69.16667 -20.5,-95.5c-13.66667,-26.33333 -30.5,-47.66667 -50.5,-64c-20,-16.33333 -41.66667,-28.16667 -65,-35.5c-23.33333,-7.33333 -44.66667,-11 -64,-11c-19.33333,0 -40.66667,3.66667 -64,11c-23.33333,7.33333 -45,19.16667 -65,35.5c-20,16.33333 -36.83333,37.66667 -50.5,64c-13.66667,26.33333 -20.5,58.16667 -20.5,95.5c0,43.33333 16.83333,89.66667 50.5,139c33.66667,49.33333 83.5,100.66667 149.5,154zM480,-200c-94,-69.33333 -164.16667,-136.66667 -210.5,-202c-46.33333,-65.33333 -69.5,-129.33333 -69.5,-192c0,-47.33333 8.5,-88.83333 25.5,-124.5c17,-35.66667 38.83333,-65.5 65.5,-89.5c26.66667,-24 56.66667,-42 90,-54c33.33333,-12 66.33333,-18 99,-18c32.66667,0 65.66667,6 99,18c33.33333,12 63.33333,30 90,54c26.66667,24 48.5,53.83333 65.5,89.5c17,35.66667 25.5,77.16667 25.5,124.5c0,62.66667 -23.16667,126.66667 -69.5,192c-46.33333,65.33333 -116.5,132.66667 -210.5,202zM480,-520c22,0 40.83333,-7.83333 56.5,-23.5c15.66667,-15.66667 23.5,-34.5 23.5,-56.5c0,-22 -7.83333,-40.83333 -23.5,-56.5c-15.66667,-15.66667 -34.5,-23.5 -56.5,-23.5c-22,0 -40.83333,7.83333 -56.5,23.5c-15.66667,15.66667 -23.5,34.5 -23.5,56.5c0,22 7.83333,40.83333 23.5,56.5c15.66667,15.66667 34.5,23.5 56.5,23.5zM200,-80v-80h560v80zM480,-594z"></path></g></g></svg>