<svg version="1.1" xmlns="http://www.w3.org/2000/svg" xmlns:xlink="http://www.w3.org/1999/xlink" width="24" height="24" viewBox="0,0,256,256"><g fill="#f7f7f7" fill-rule="nonzero" stroke="none" stroke-width="1" stroke-linecap="butt" stroke-linejoin="miter" stroke-miterlimit="10" stroke-dasharray="" stroke-dashoffset="0" font-family="none" font-weight="none" font-size="none" text-anchor="none" style="mix-blend-mode: normal"><g transform="translate(0,256) scale(0.26667,0.26667)"><path d="M480,-120c-49.33333,0 -95.83333,-9.5 -139.5,-28.5c-43.66667,-19 -81.83333,-44.83333 -114.5,-77.5c-32.66667,-32.66667 -58.5,-70.83333 -77.5,-114.5c-19,-43.66667 -28.5,-90.16667 -28.5,-139.5c0,-29.33333 3.33333,-57.83333 10,-85.5c6.66667,-27.66667 16.33333,-53.66667 29,-78c12.66667,-24.33333 27.83333,-47 45.5,-68c17.66667,-21 37.5,-39.83333 59.5,-56.5l272,272l-56,56l-216,-216c-20,24 -35.66667,50.83333 -47,80.5c-11.33333,29.66667 -17,61.5 -17,95.5c0,77.33333 27.33333,143.33333 82,198c54.66667,54.66667 120.66667,82 198,82c77.33333,0 143.33333,-27.33333 198,-82c54.66667,-54.66667 82,-120.66667 82,-198c0,-71.33333 -22.83333,-132.83333 -68.5,-184.5c-45.66667,-51.66667 -102.83333,-82.16667 -171.5,-91.5v76h-80v-160h40c49.33333,0 95.83333,9.5 139.5,28.5c43.66667,19 81.83333,44.83333 114.5,77.5c32.66667,32.66667 58.5,70.83333 77.5,114.5c19,43.66667 28.5,90.16667 28.5,139.5c0,49.33333 -9.5,95.83333 -28.5,139.5c-19,43.66667 -44.83333,81.83333 -77.5,114.5c-32.66667,32.66667 -70.83333,58.5 -114.5,77.5c-43.66667,19 -90.16667,28.5 -139.5,28.5zM280,-440c-11.33333,0 -20.83333,-3.83333 -28.5,-11.5c-7.66667,-7.66667 -11.5,-17.16667 -11.5,-28.5c0,-11.33333 3.83333,-20.83333 11.5,-28.5c7.66667,-7.66667 17.16667,-11.5 28.5,-11.5c11.33333,0 20.83333,3.83333 28.5,11.5c7.66667,7.66667 11.5,17.16667 11.5,28.5c0,11.33333 -3.83333,20.83333 -11.5,28.5c-7.66667,7.66667 -17.16667,11.5 -28.5,11.5zM480,-240c-11.33333,0 -20.83333,-3.83333 -28.5,-11.5c-7.66667,-7.66667 -11.5,-17.16667 -11.5,-28.5c0,-11.33333 3.83333,-20.83333 11.5,-28.5c7.66667,-7.66667 17.16667,-11.5 28.5,-11.5c11.33333,0 20.83333,3.83333 28.5,11.5c7.66667,7.66667 11.5,17.16667 11.5,28.5c0,11.33333 -3.83333,20.83333 -11.5,28.5c-7.66667,7.66667 -17.16667,11.5 -28.5,11.5zM680,-440c-11.33333,0 -20.83333,-3.83333 -28.5,-11.5c-7.66667,-7.66667 -11.5,-17.16667 -11.5,-28.5c0,-11.33333 3.83333,-20.83333 11.5,-28.5c7.66667,-7.66667 17.16667,-11.5 28.5,-11.5c11.33333,0 20.83333,3.83333 28.5,11.5c7.66667,7.66667 11.5,17.16667 11.5,28.5c0,11.33333 -3.83333,20.83333 -11.5,28.5c-7.66667,7.66667 -17.16667,11.5 -28.5,11.5z"></path></g></g></svg>