<svg version="1.1" xmlns="http://www.w3.org/2000/svg" xmlns:xlink="http://www.w3.org/1999/xlink" width="24" height="24" viewBox="0,0,256,256"><g fill="#838383" fill-rule="nonzero" stroke="none" stroke-width="1" stroke-linecap="butt" stroke-linejoin="miter" stroke-miterlimit="10" stroke-dasharray="" stroke-dashoffset="0" font-family="none" font-weight="none" font-size="none" text-anchor="none" style="mix-blend-mode: normal"><g transform="translate(-0.0016,0.0016)"><g><g transform="translate(0,256) scale(0.26667,0.26667)"><path d="M240,-200h480l-57,-400h-366zM480,-680c11.33333,0 20.83333,-3.83333 28.5,-11.5c7.66667,-7.66667 11.5,-17.16667 11.5,-28.5c0,-11.33333 -3.83333,-20.83333 -11.5,-28.5c-7.66667,-7.66667 -17.16667,-11.5 -28.5,-11.5c-11.33333,0 -20.83333,3.83333 -28.5,11.5c-7.66667,7.66667 -11.5,17.16667 -11.5,28.5c0,11.33333 3.83333,20.83333 11.5,28.5c7.66667,7.66667 17.16667,11.5 28.5,11.5zM593,-680h70c20,0 37.33333,6.66667 52,20c14.66667,13.33333 23.66667,29.66667 27,49l57,400c3.33333,24 -2.83333,45.16667 -18.5,63.5c-15.66667,18.33333 -35.83333,27.5 -60.5,27.5h-480c-24.66667,0 -44.83333,-9.16667 -60.5,-27.5c-15.66667,-18.33333 -21.83333,-39.5 -18.5,-63.5l57,-400c3.33333,-19.33333 12.33333,-35.66667 27,-49c14.66667,-13.33333 32,-20 52,-20h70c-2,-6.66667 -3.66667,-13.16667 -5,-19.5c-1.33333,-6.33333 -2,-13.16667 -2,-20.5c0,-33.33333 11.66667,-61.66667 35,-85c23.33333,-23.33333 51.66667,-35 85,-35c33.33333,0 61.66667,11.66667 85,35c23.33333,23.33333 35,51.66667 35,85c0,7.33333 -0.66667,14.16667 -2,20.5c-1.33333,6.33333 -3,12.83333 -5,19.5zM240,-200h480z"></path></g></g></g></g></svg>