<svg version="1.1" xmlns="http://www.w3.org/2000/svg" xmlns:xlink="http://www.w3.org/1999/xlink" width="24" height="24" viewBox="0,0,256,256"><g fill="#f7f7f7" fill-rule="nonzero" stroke="none" stroke-width="1" stroke-linecap="butt" stroke-linejoin="miter" stroke-miterlimit="10" stroke-dasharray="" stroke-dashoffset="0" font-family="none" font-weight="none" font-size="none" text-anchor="none" style="mix-blend-mode: normal"><g transform="translate(0,250.66667) scale(0.26667,0.26667)"><path d="M480,-120c-28,0 -51.66667,-9.66667 -71,-29c-19.33333,-19.33333 -29,-43 -29,-71c0,-28 9.66667,-51.66667 29,-71c19.33333,-19.33333 43,-29 71,-29c28,0 51.66667,9.66667 71,29c19.33333,19.33333 29,43 29,71c0,28 -9.66667,51.66667 -29,71c-19.33333,19.33333 -43,29 -71,29zM254,-346l-84,-86c39.33333,-39.33333 85.5,-70.5 138.5,-93.5c53,-23 110.16667,-34.5 171.5,-34.5c61.33333,0 118.5,11.66667 171.5,35c53,23.33333 99.16667,55 138.5,95l-84,84c-29.33333,-29.33333 -63.33333,-52.33333 -102,-69c-38.66667,-16.66667 -80,-25 -124,-25c-44,0 -85.33333,8.33333 -124,25c-38.66667,16.66667 -72.66667,39.66667 -102,69zM84,-516l-84,-84c61.33333,-62.66667 133,-111.66667 215,-147c82,-35.33333 170.33333,-53 265,-53c94.66667,0 183,17.66667 265,53c82,35.33333 153.66667,84.33333 215,147l-84,84c-51.33333,-51.33333 -110.83333,-91.5 -178.5,-120.5c-67.66667,-29 -140.16667,-43.5 -217.5,-43.5c-77.33333,0 -149.83333,14.5 -217.5,43.5c-67.66667,29 -127.16667,69.16667 -178.5,120.5z"></path></g></g></svg>