<?xml version="1.0" standalone="no"?>
<!DOCTYPE svg PUBLIC "-//W3C//DTD SVG 20010904//EN"
 "http://www.w3.org/TR/2001/REC-SVG-20010904/DTD/svg10.dtd">
<svg version="1.0" xmlns="http://www.w3.org/2000/svg"
 width="512.000000pt" height="512.000000pt" viewBox="0 0 512.000000 512.000000"
 preserveAspectRatio="xMidYMid meet">

<g transform="translate(0.000000,512.000000) scale(0.100000,-0.100000)"
fill="#a78151" stroke="none">
<path d="M2368 5104 c-156 -24 -338 -96 -470 -186 -60 -40 -78 -63 -78 -98 0
-27 43 -70 70 -70 12 0 65 27 117 60 181 113 332 155 553 155 165 -1 257 -19
397 -78 226 -95 432 -297 534 -524 57 -125 81 -240 86 -417 l6 -159 -63 6
c-35 4 -78 7 -96 7 -31 0 -34 3 -34 28 0 87 -84 198 -166 221 -22 6 -89 11
-151 11 l-111 0 -74 127 c-115 200 -141 201 -256 3 l-73 -125 -337 -5 c-370
-5 -365 -5 -431 -71 -42 -42 -61 -80 -68 -140 -6 -47 -7 -49 -38 -49 -18 0
-60 -3 -94 -6 l-61 -7 0 125 c0 147 19 267 59 378 28 75 47 113 116 233 24 42
26 51 15 77 -7 16 -25 34 -42 41 -57 23 -100 -20 -177 -176 -90 -182 -121
-333 -121 -594 l0 -173 -29 -33 c-50 -58 -71 -131 -71 -254 0 -128 16 -192 65
-256 l35 -45 0 -263 c0 -290 6 -331 62 -447 35 -73 160 -206 216 -229 17 -7
32 -16 32 -20 0 -4 -118 -44 -262 -90 -349 -111 -407 -139 -518 -250 -71 -70
-95 -102 -128 -171 -59 -120 -72 -181 -72 -331 0 -143 7 -159 72 -159 62 0 72
22 79 178 7 149 21 202 78 291 44 68 127 144 197 179 32 16 210 78 394 137
184 59 340 110 347 112 10 4 13 -46 13 -241 0 -275 5 -301 62 -336 65 -39 87
-32 313 110 115 72 210 130 212 130 1 0 3 -351 3 -780 l0 -780 -807 2 -808 3
-5 371 c-5 348 -6 373 -24 393 -25 27 -86 29 -109 3 -15 -17 -17 -60 -17 -407
l0 -388 25 -43 c16 -28 39 -49 68 -63 l43 -21 1714 0 1714 0 43 21 c29 14 52
35 68 63 l25 43 0 650 c0 614 -1 654 -20 727 -31 123 -81 209 -179 306 -112
111 -158 133 -510 245 -154 50 -281 92 -281 95 0 3 23 19 51 35 69 40 159 140
197 218 54 110 62 163 62 453 0 241 1 262 18 278 11 9 32 42 48 74 26 51 29
69 33 173 4 139 -12 205 -64 273 l-35 46 0 164 c0 267 -29 406 -125 601 -227
461 -726 719 -1237 639z m446 -1088 c29 -49 59 -89 73 -95 14 -6 82 -11 159
-11 l136 0 29 -30 30 -30 -3 -402 -4 -403 -26 -80 c-98 -289 -353 -475 -653
-475 -267 0 -500 146 -615 385 -66 137 -70 175 -70 600 l0 377 29 29 29 29
345 0 c400 0 369 -8 437 115 23 41 45 75 48 75 4 0 29 -38 56 -84z m-1096
-608 l2 -238 -75 0 c-107 0 -159 28 -200 109 -13 27 -16 54 -13 140 3 100 5
110 31 145 50 65 101 86 202 83 l50 -2 3 -237z m1812 231 c104 -22 149 -92
150 -232 0 -170 -60 -237 -215 -237 l-75 0 0 240 0 240 45 0 c24 0 67 -5 95
-11z m-1804 -624 c6 -2 15 -21 19 -42 11 -63 62 -180 111 -256 52 -80 168
-199 232 -237 23 -14 42 -28 42 -32 0 -4 -38 -30 -84 -58 -64 -38 -92 -62
-113 -96 -28 -44 -28 -45 -73 -39 -112 13 -229 104 -287 223 l-38 76 -3 235
-3 236 93 -3 c51 -2 98 -5 104 -7z m1852 -222 l-3 -238 -32 -68 c-57 -120
-182 -218 -295 -233 -42 -5 -44 -4 -73 40 -26 40 -58 65 -162 127 -18 10 -33
22 -33 26 0 5 19 20 43 35 66 43 141 113 193 181 55 72 127 218 146 297 l14
55 95 6 c52 3 98 6 102 7 5 1 7 -105 5 -235z m-1188 -438 c115 -26 288 -17
418 21 21 6 22 4 22 -54 l0 -61 -75 -61 c-72 -58 -79 -69 -138 -186 l-62 -125
-60 122 c-57 116 -64 125 -137 186 l-78 65 0 60 c0 58 1 60 23 54 12 -4 51
-13 87 -21z m-252 -139 c10 -37 23 -52 87 -102 69 -54 80 -68 126 -157 27 -55
49 -103 47 -107 -3 -8 -344 -230 -354 -230 -2 0 -4 129 -4 286 l0 286 34 34
c19 19 38 34 43 34 5 0 14 -20 21 -44z m898 10 l34 -34 0 -286 c0 -157 -2
-286 -5 -286 -5 0 -336 209 -349 221 -5 5 9 48 34 103 40 90 47 99 119 155 83
65 95 80 106 129 8 41 19 40 61 -2z m549 -291 c187 -59 367 -121 400 -138 126
-65 236 -210 265 -347 8 -39 10 -235 8 -675 l-3 -620 -127 -3 -127 -3 -3 474
c-3 432 -5 475 -21 500 -27 42 -62 59 -131 64 l-65 6 -7 40 c-4 25 -18 52 -34
69 l-28 28 -152 0 c-85 0 -160 -5 -171 -10 -25 -14 -49 -62 -49 -98 0 -29 -1
-29 -69 -35 -40 -3 -81 -13 -96 -23 -51 -33 -55 -55 -55 -289 0 -202 1 -216
20 -235 30 -30 83 -27 109 6 20 25 21 40 21 211 l0 184 32 -3 c28 -3 33 -8 39
-38 4 -20 21 -47 39 -63 l32 -28 153 3 c175 3 187 9 207 85 10 41 13 44 42 41
l31 -3 3 -442 2 -443 -290 0 -290 0 0 104 c0 89 -3 107 -21 130 -26 33 -79 36
-109 6 -18 -18 -20 -33 -20 -130 l0 -110 -245 0 -245 0 0 780 c0 429 2 780 4
780 2 0 86 -52 185 -115 100 -63 194 -121 210 -130 65 -33 143 -7 174 58 14
30 17 72 17 282 0 194 3 246 13 242 6 -2 165 -53 352 -112z m45 -815 l0 -60
-70 0 -70 0 0 60 0 60 70 0 70 0 0 -60z"/>
<path d="M2173 3696 c-27 -24 -28 -27 -28 -130 0 -95 2 -108 22 -127 27 -27
75 -29 103 -4 18 16 20 31 20 131 0 110 -1 113 -26 133 -35 27 -57 26 -91 -3z"/>
<path d="M2843 3696 c-27 -24 -28 -27 -28 -130 0 -95 2 -108 22 -127 27 -27
75 -29 103 -4 18 16 20 31 20 131 0 110 -1 113 -26 133 -35 27 -57 26 -91 -3z"/>
<path d="M2470 3439 c-58 -34 -85 -82 -85 -154 0 -52 4 -67 29 -99 31 -41 94
-75 139 -76 34 0 77 40 77 72 0 35 -27 67 -63 76 -44 11 -43 41 2 57 61 20 78
71 40 119 -26 33 -87 35 -139 5z"/>
<path d="M2260 2998 c-41 -44 -14 -146 58 -222 20 -21 64 -51 97 -67 51 -25
72 -29 140 -29 68 0 89 4 140 29 70 34 126 88 154 151 26 58 26 101 0 134 -40
51 -129 20 -129 -46 0 -34 -44 -87 -87 -104 -43 -18 -127 -18 -162 1 -39 20
-81 72 -81 99 0 13 -9 35 -21 50 -27 34 -79 36 -109 4z"/>
</g>
</svg>
