<?xml version="1.0" standalone="no"?>
<!DOCTYPE svg PUBLIC "-//W3C//DTD SVG 20010904//EN"
 "http://www.w3.org/TR/2001/REC-SVG-20010904/DTD/svg10.dtd">
<svg version="1.0" xmlns="http://www.w3.org/2000/svg"
 width="512.000000pt" height="512.000000pt" viewBox="0 0 512.000000 512.000000"
 preserveAspectRatio="xMidYMid meet">

<g transform="translate(0.000000,512.000000) scale(0.100000,-0.100000)"
fill="#a78151" stroke="none">
<path d="M2425 4769 c-440 -55 -803 -378 -917 -814 -26 -103 -35 -291 -18
-389 16 -91 85 -300 144 -440 154 -357 469 -918 789 -1405 l135 -204 91 137
c310 463 643 1044 799 1396 146 329 198 522 188 705 -23 456 -338 851 -779
979 -140 41 -289 53 -432 35z m355 -160 c114 -26 284 -111 378 -190 207 -172
342 -452 342 -709 0 -226 -172 -646 -493 -1207 -167 -291 -435 -723 -449 -723
-7 0 -104 149 -243 375 -322 523 -566 1010 -662 1320 -25 82 -27 104 -27 240
0 134 3 159 27 238 114 371 417 629 797 677 89 12 228 3 330 -21z"/>
<path d="M2421 4185 c-212 -59 -371 -269 -371 -490 0 -231 175 -449 397 -495
78 -17 215 -8 285 18 163 58 286 202 323 377 18 87 18 113 0 200 -37 174 -160
318 -323 378 -75 27 -234 33 -311 12z m265 -146 c162 -61 265 -239 234 -404
-25 -130 -115 -239 -237 -285 -48 -18 -73 -21 -143 -18 -73 3 -94 9 -148 37
-75 41 -135 103 -170 179 -23 48 -27 71 -27 147 0 76 4 99 27 146 44 96 124
169 226 205 58 21 172 17 238 -7z"/>
<path d="M2374 3756 c-3 -7 -4 -40 -2 -72 l3 -59 68 -3 67 -3 0 76 0 75 -65 0
c-46 0 -67 -4 -71 -14z"/>
<path d="M2610 3695 l0 -76 68 3 67 3 0 70 0 70 -67 3 -68 3 0 -76z"/>
<path d="M635 2168 c-6 -16 -475 -1798 -475 -1804 0 -2 1078 -4 2395 -4 2223
0 2395 1 2395 17 0 13 -444 1714 -466 1786 -5 16 -48 17 -720 17 l-714 0 0
-70 0 -70 33 0 33 0 107 -408 c59 -224 107 -413 107 -420 0 -9 -178 -12 -776
-12 -734 0 -775 1 -770 18 4 13 139 525 207 784 8 32 14 37 42 40 l32 3 3 68
3 67 -716 0 c-563 0 -717 -3 -720 -12z m859 -255 c-18 -71 -34 -131 -34 -135
0 -5 -175 -8 -390 -8 -214 0 -390 3 -390 8 0 4 14 64 32 135 l33 127 392 0
392 0 -35 -127z m356 115 c0 -6 -56 -225 -125 -486 -69 -261 -124 -477 -122
-479 2 -2 434 -2 959 -1 l955 3 -122 466 c-68 256 -126 476 -130 488 -6 21 -5
22 87 19 l93 -3 46 -175 c25 -96 49 -187 53 -202 l6 -28 465 0 464 0 11 -42
c6 -24 17 -64 24 -90 l14 -48 -465 0 c-437 0 -464 -1 -459 -17 22 -77 236
-902 236 -911 0 -8 -28 -12 -89 -12 l-88 0 -43 167 c-24 93 -47 176 -52 186
-8 16 -67 17 -1013 17 l-1005 0 -7 -27 c-3 -16 -25 -98 -47 -183 l-41 -155
-94 -3 c-73 -2 -92 0 -88 10 11 30 237 898 237 912 0 14 -50 16 -460 16 -253
0 -460 1 -460 3 0 1 11 40 24 87 l23 85 462 3 462 2 9 24 c5 13 30 105 56 205
l47 181 88 0 c61 0 89 -4 89 -12z m2556 -118 c18 -69 33 -128 34 -132 0 -5
-175 -8 -389 -8 l-390 0 -15 53 c-8 28 -22 81 -31 117 -9 36 -18 73 -21 83 -5
16 16 17 387 15 l392 -3 33 -125z m-3076 -607 c1 -5 -46 -185 -102 -400 l-103
-393 -392 0 -392 0 14 48 c7 26 52 196 100 377 47 182 90 340 95 353 l10 22
385 0 c212 0 385 -3 385 -7z m3337 -383 c56 -212 102 -391 102 -397 1 -10 -83
-13 -389 -13 l-390 0 -6 27 c-4 16 -51 193 -104 396 -53 202 -94 369 -92 372
3 3 179 4 391 3 l386 -3 102 -385z m-1203 -207 c3 -10 16 -60 30 -110 l25 -93
-960 0 c-910 0 -960 1 -955 18 3 9 15 55 26 102 12 46 24 88 26 92 3 4 410 8
904 8 847 0 899 -1 904 -17z"/>
</g>
</svg>
