<?xml version="1.0" standalone="no"?>
<!DOCTYPE svg PUBLIC "-//W3C//DTD SVG 20010904//EN"
 "http://www.w3.org/TR/2001/REC-SVG-20010904/DTD/svg10.dtd">
<svg version="1.0" xmlns="http://www.w3.org/2000/svg"
 width="512.000000pt" height="512.000000pt" viewBox="0 0 512.000000 512.000000"
 preserveAspectRatio="xMidYMid meet">

<g transform="translate(0.000000,512.000000) scale(0.100000,-0.100000)"
fill="#a78151" stroke="none">
<path d="M160 4800 l0 -80 80 0 80 0 0 80 0 80 -80 0 -80 0 0 -80z"/>
<path d="M480 4800 l0 -80 80 0 80 0 0 80 0 80 -80 0 -80 0 0 -80z"/>
<path d="M800 4800 l0 -80 400 0 400 0 0 80 0 80 -400 0 -400 0 0 -80z"/>
<path d="M415 4546 c-41 -18 -83 -69 -90 -109 -3 -18 -5 -334 -3 -704 3 -660
3 -672 24 -699 40 -54 70 -68 149 -72 l74 -4 -6 -49 c-3 -28 0 -68 8 -96 23
-85 132 -173 214 -173 11 0 -7 -19 -46 -49 -35 -27 -90 -76 -123 -109 l-58
-60 -42 24 c-54 31 -114 39 -178 24 -41 -10 -63 -24 -103 -64 -102 -102 -102
-230 0 -332 31 -32 64 -54 84 -59 28 -6 32 -10 27 -30 -19 -75 -26 -193 -26
-448 l0 -288 25 -24 24 -25 258 0 258 0 -3 -75 c-3 -51 3 -99 17 -155 50 -200
165 -343 346 -430 99 -47 162 -62 268 -62 184 -1 338 63 467 194 111 113 172
260 174 423 l1 100 705 5 c388 3 714 9 726 14 20 7 21 5 16 -71 -14 -264 155
-522 408 -621 81 -32 135 -41 230 -42 179 0 318 58 446 185 193 192 247 467
140 709 -14 32 -26 60 -26 62 0 2 25 4 55 4 105 0 122 47 90 235 -49 279 -242
529 -500 646 -68 30 -203 69 -244 69 -14 0 -32 4 -39 8 -8 6 -34 170 -77 493
-35 266 -67 498 -70 516 l-6 31 104 4 c96 3 106 5 141 32 21 15 42 40 49 55 6
14 12 27 13 29 1 2 29 -6 63 -18 40 -13 86 -20 136 -20 67 0 79 3 100 25 l25
24 0 271 0 271 -25 24 c-21 22 -33 25 -100 25 -50 0 -96 -7 -136 -20 -34 -12
-62 -20 -63 -18 -1 2 -7 15 -13 29 -7 15 -28 40 -49 55 l-37 29 -391 0 -391 0
-52 -27 c-69 -37 -120 -89 -150 -154 l-24 -52 -177 -4 c-166 -3 -179 -4 -215
-27 -21 -13 -50 -42 -65 -64 -22 -34 -27 -52 -27 -106 0 -79 25 -128 88 -169
40 -27 43 -27 237 -30 l196 -3 23 -35 c40 -58 163 -124 233 -124 17 0 18 -32
18 -776 0 -581 -3 -787 -12 -818 -16 -55 -99 -138 -154 -154 -28 -8 -134 -12
-338 -12 l-296 0 0 480 c0 426 2 480 15 480 9 0 27 11 40 25 24 23 25 31 25
136 0 61 -5 130 -12 153 -16 55 -99 138 -154 154 -28 8 -126 12 -297 12 l-257
0 -2 669 c-3 658 -3 670 -24 697 -11 15 -33 37 -48 48 -27 21 -37 21 -794 23
-622 2 -773 0 -797 -11z m545 -226 l0 -80 -240 0 -240 0 0 80 0 80 240 0 240
0 0 -80z m320 -80 l0 -160 -80 0 -80 0 0 160 0 160 80 0 80 0 0 -160z m640 80
l0 -80 -240 0 -240 0 0 80 0 80 240 0 240 0 0 -80z m-960 -295 c0 -46 4 -60
25 -80 24 -25 26 -25 215 -25 189 0 191 0 215 25 21 20 25 34 25 80 l0 55 240
0 240 0 0 -480 0 -480 -720 0 -720 0 0 480 0 480 240 0 240 0 0 -55z m3200
-185 l0 -240 -242 1 c-171 1 -233 4 -210 10 47 14 109 79 123 131 23 89 -12
182 -88 229 -35 22 -50 24 -195 27 -87 2 -158 7 -158 11 0 11 31 37 65 55 25
14 81 16 368 16 l337 0 0 -240z m320 0 c0 -177 1 -173 -63 -146 -125 52 -126
238 -2 292 66 29 65 31 65 -146z m-806 -22 c8 -13 8 -23 0 -35 -10 -17 -42
-18 -389 -21 -389 -2 -405 -1 -405 37 0 40 10 41 404 39 348 -3 380 -4 390
-20z m180 -415 c4 -21 38 -272 76 -559 l69 -521 -79 -343 c-44 -188 -90 -365
-103 -394 -38 -81 -98 -140 -185 -183 l-76 -38 -578 -3 -578 -3 0 297 c0 200
-4 310 -12 336 -6 22 -31 62 -55 88 -73 82 -60 80 -658 80 -326 0 -544 -4
-581 -11 -162 -29 -321 -151 -394 -303 -49 -103 -60 -165 -60 -343 l0 -143
-80 0 -80 0 0 234 c0 265 12 364 61 485 105 263 318 453 599 534 73 21 92 21
748 25 l672 3 0 -536 0 -536 25 -25 25 -25 383 3 383 3 76 37 c91 45 147 103
191 196 l32 67 3 808 3 807 83 0 84 0 6 -37z m-2014 -523 l0 -80 -535 0 -536
0 -24 25 c-16 15 -25 36 -25 55 0 19 9 40 25 55 l24 25 536 0 535 0 0 -80z
m775 55 c21 -20 25 -34 25 -80 l0 -55 -320 0 -320 0 0 80 0 80 295 0 296 0 24
-25z m-2170 -629 c19 -14 19 -16 -10 -76 -16 -34 -33 -64 -36 -66 -14 -8 -57
19 -68 43 -17 37 -13 62 14 88 27 28 71 33 100 11z m3816 -91 c172 -42 344
-171 438 -328 40 -68 91 -209 91 -254 l0 -33 -400 0 -400 0 9 23 c4 12 39 156
76 319 l68 297 31 -5 c17 -3 56 -12 87 -19z m-2046 -240 c24 -23 25 -29 25
-160 l0 -135 -715 0 c-598 0 -715 2 -715 14 0 32 73 156 114 194 49 45 126 88
183 101 21 5 273 9 561 10 l523 1 24 -25z m25 -535 l0 -80 -720 0 -720 0 0 80
0 80 720 0 720 0 0 -80z m2384 -33 c72 -94 109 -245 89 -362 -32 -188 -174
-342 -358 -390 -309 -80 -617 180 -592 500 8 100 29 150 95 221 l57 62 342 1
342 1 25 -33z m-3341 -257 c-9 -78 12 -136 71 -195 52 -52 103 -75 166 -75 63
0 114 23 166 75 59 59 80 117 71 195 l-6 50 118 0 c135 0 131 2 131 -84 0
-211 -155 -406 -367 -461 -248 -65 -511 95 -578 350 -15 60 -20 151 -9 179 5
13 26 16 125 16 l118 0 -6 -50z m292 25 c50 -49 15 -135 -55 -135 -19 0 -40 9
-55 25 -16 15 -25 36 -25 55 0 19 9 40 25 55 15 16 36 25 55 25 19 0 40 -9 55
-25z"/>
<path d="M4160 1347 c-49 -16 -133 -102 -148 -153 -28 -94 -8 -169 63 -239 70
-71 145 -91 239 -63 55 16 138 99 154 154 28 94 8 169 -63 239 -70 71 -152 91
-245 62z m135 -172 c50 -49 15 -135 -55 -135 -41 0 -80 39 -80 80 0 41 39 80
80 80 19 0 40 -9 55 -25z"/>
<path d="M2480 560 l0 -80 80 0 80 0 0 80 0 80 -80 0 -80 0 0 -80z"/>
<path d="M2800 560 l0 -80 400 0 400 0 0 80 0 80 -400 0 -400 0 0 -80z"/>
<path d="M1840 240 l0 -80 80 0 80 0 0 80 0 80 -80 0 -80 0 0 -80z"/>
<path d="M2160 240 l0 -80 80 0 80 0 0 80 0 80 -80 0 -80 0 0 -80z"/>
<path d="M2480 240 l0 -80 400 0 400 0 0 80 0 80 -400 0 -400 0 0 -80z"/>
</g>
</svg>
